<svg id="layer_1" data-name="layer 1" xmlns="http://www.w3.org/2000/svg" viewBox="0 0 120 120"><title>selected-lines</title><circle cx="60" cy="60" r="60" style="fill:#162740"/><rect x="20" y="32" width="73" height="6" style="fill:#9cdcfe"/><rect x="20" y="43.75" width="73" height="6" style="fill:#9cdcfe"/><rect x="20" y="55.5" width="73" height="6" style="fill:#9cdcfe"/><rect x="20" y="67.25" width="73" height="6" style="fill:#9cdcfe"/><rect x="20" y="79" width="55" height="6" style="fill:#9cdcfe"/><polygon points="79 76.13 79 78.53 79 99.53 79 101.69 80.66 100.31 84.69 96.94 86.72 100.97 87.16 101.88 88.06 101.41 91.16 99.81 92.03 99.38 91.59 98.47 89.75 94.84 94.81 94.22 96.84 93.97 95.41 92.53 80.72 77.81 79 76.13"/><polygon points="81 80.97 92.56 92.5 88.06 93.03 86.66 93.22 87.31 94.5 89.38 98.5 88.06 99.19 85.91 94.88 85.31 93.75 84.34 94.56 81 97.38 81 80.97" style="fill:#fff"/></svg>